<svg width="410" height="84" viewBox="0 0 410 84" fill="none" xmlns="http://www.w3.org/2000/svg">
<path d="M0 74.48H64V10.48H0V74.48Z" fill="white"/>
<path d="M97.952 18.936L100.448 63H95.104L93.728 39.992C93.664 38.4347 93.6 36.856 93.536 35.256C93.472 33.656 93.4293 32.12 93.408 30.648C93.3867 29.176 93.376 27.864 93.376 26.712C93.376 25.56 93.376 24.664 93.376 24.024L85.952 55.096H80.384L72.416 24.024C72.4373 24.6427 72.4587 25.56 72.48 26.776C72.5013 27.9707 72.512 29.3253 72.512 30.84C72.5333 32.3547 72.5227 33.912 72.48 35.512C72.4587 37.0907 72.416 38.5627 72.352 39.928L71.168 63H65.952L68.448 18.936H76.192L83.328 49.112L90.144 18.936H97.952ZM121.639 28.6C124.818 28.6 127.474 29.3253 129.607 30.776C131.762 32.2053 133.372 34.232 134.439 36.856C135.527 39.48 136.071 42.5733 136.071 46.136C136.071 49.5707 135.516 52.6107 134.407 55.256C133.298 57.9013 131.666 59.9813 129.511 61.496C127.378 62.9893 124.732 63.736 121.575 63.736C118.418 63.736 115.762 63.0107 113.607 61.56C111.452 60.1093 109.82 58.072 108.711 55.448C107.623 52.8027 107.079 49.72 107.079 46.2C107.079 42.7227 107.634 39.6613 108.743 37.016C109.852 34.3707 111.484 32.312 113.639 30.84C115.815 29.3467 118.482 28.6 121.639 28.6ZM121.639 32.984C118.738 32.984 116.54 34.0613 115.047 36.216C113.575 38.3493 112.839 41.6773 112.839 46.2C112.839 50.6373 113.564 53.9333 115.015 56.088C116.487 58.2427 118.674 59.32 121.575 59.32C124.476 59.32 126.652 58.2427 128.103 56.088C129.575 53.9333 130.311 50.616 130.311 46.136C130.311 41.656 129.586 38.3493 128.135 36.216C126.684 34.0613 124.519 32.984 121.639 32.984ZM167.342 15.064L172.718 15.736V63H168.014L167.502 58.552C166.243 60.344 164.793 61.656 163.15 62.488C161.529 63.32 159.79 63.736 157.934 63.736C155.011 63.736 152.601 63 150.702 61.528C148.803 60.056 147.395 58.008 146.478 55.384C145.561 52.7387 145.102 49.6773 145.102 46.2C145.102 42.8293 145.625 39.8213 146.67 37.176C147.715 34.5093 149.219 32.4187 151.182 30.904C153.166 29.368 155.545 28.6 158.318 28.6C160.259 28.6 161.966 28.9413 163.438 29.624C164.91 30.2853 166.211 31.2667 167.342 32.568V15.064ZM159.726 32.92C156.91 32.92 154.745 34.0187 153.23 36.216C151.715 38.4133 150.958 41.7413 150.958 46.2C150.958 49.1013 151.267 51.5333 151.886 53.496C152.505 55.4587 153.411 56.9307 154.606 57.912C155.822 58.8933 157.305 59.384 159.054 59.384C160.974 59.384 162.606 58.84 163.95 57.752C165.315 56.664 166.446 55.4373 167.342 54.072V37.24C166.425 35.8747 165.315 34.8187 164.014 34.072C162.713 33.304 161.283 32.92 159.726 32.92ZM206.645 63V42.104H190.005V63H184.469V18.936H190.005V37.56H206.645V18.936H212.181V63H206.645ZM228.156 48.056C228.263 50.6587 228.764 52.792 229.66 54.456C230.556 56.0987 231.74 57.3147 233.212 58.104C234.684 58.872 236.284 59.256 238.012 59.256C239.74 59.256 241.297 59 242.684 58.488C244.092 57.976 245.532 57.2187 247.004 56.216L249.532 59.768C247.953 61.0053 246.151 61.976 244.124 62.68C242.119 63.384 240.06 63.736 237.948 63.736C234.684 63.736 231.9 63 229.596 61.528C227.292 60.056 225.532 58.008 224.316 55.384C223.121 52.7387 222.524 49.6773 222.524 46.2C222.524 42.7867 223.132 39.7573 224.348 37.112C225.564 34.4667 227.271 32.3867 229.468 30.872C231.665 29.3573 234.257 28.6 237.244 28.6C240.081 28.6 242.524 29.272 244.572 30.616C246.62 31.9387 248.188 33.8373 249.276 36.312C250.385 38.7653 250.94 41.6987 250.94 45.112C250.94 45.688 250.929 46.232 250.908 46.744C250.887 47.2347 250.855 47.672 250.812 48.056H228.156ZM237.308 33.016C234.812 33.016 232.721 33.9013 231.036 35.672C229.372 37.4427 228.423 40.184 228.188 43.896H245.756C245.692 40.2907 244.903 37.5813 243.388 35.768C241.873 33.9333 239.847 33.016 237.308 33.016ZM275.427 15.736V54.68C275.427 56.344 275.939 57.528 276.963 58.232C278.008 58.9147 279.352 59.256 280.995 59.256C282.019 59.256 282.99 59.1493 283.907 58.936C284.824 58.7227 285.742 58.4347 286.659 58.072L288.099 62.008C287.182 62.456 286.04 62.8507 284.675 63.192C283.331 63.5547 281.806 63.736 280.099 63.736C277.112 63.736 274.691 62.9147 272.835 61.272C270.979 59.608 270.051 57.3147 270.051 54.392V19.992H259.715V15.736H275.427ZM315.754 28.6C318.741 28.6 321.119 29.3253 322.89 30.776C324.682 32.2267 325.973 34.2747 326.762 36.92C327.551 39.544 327.946 42.616 327.946 46.136C327.946 49.528 327.466 52.5573 326.506 55.224C325.567 57.8693 324.138 59.9493 322.218 61.464C320.298 62.9787 317.877 63.736 314.954 63.736C311.263 63.736 308.298 62.4347 306.058 59.832V75.896L300.682 76.568V29.304H305.258L305.706 34.008C306.943 32.28 308.415 30.9467 310.122 30.008C311.85 29.0693 313.727 28.6 315.754 28.6ZM314.474 32.92C312.618 32.92 310.975 33.4853 309.546 34.616C308.138 35.7253 306.975 36.9627 306.058 38.328V55.032C306.933 56.3333 308.031 57.368 309.354 58.136C310.698 58.8827 312.17 59.256 313.77 59.256C316.565 59.256 318.666 58.1893 320.074 56.056C321.482 53.9227 322.186 50.6053 322.186 46.104C322.186 43.16 321.909 40.7173 321.354 38.776C320.799 36.8133 319.957 35.352 318.826 34.392C317.695 33.4107 316.245 32.92 314.474 32.92ZM343.281 48.056C343.388 50.6587 343.889 52.792 344.785 54.456C345.681 56.0987 346.865 57.3147 348.337 58.104C349.809 58.872 351.409 59.256 353.137 59.256C354.865 59.256 356.422 59 357.809 58.488C359.217 57.976 360.657 57.2187 362.129 56.216L364.657 59.768C363.078 61.0053 361.276 61.976 359.249 62.68C357.244 63.384 355.185 63.736 353.073 63.736C349.809 63.736 347.025 63 344.721 61.528C342.417 60.056 340.657 58.008 339.441 55.384C338.246 52.7387 337.649 49.6773 337.649 46.2C337.649 42.7867 338.257 39.7573 339.473 37.112C340.689 34.4667 342.396 32.3867 344.593 30.872C346.79 29.3573 349.382 28.6 352.369 28.6C355.206 28.6 357.649 29.272 359.697 30.616C361.745 31.9387 363.313 33.8373 364.401 36.312C365.51 38.7653 366.065 41.6987 366.065 45.112C366.065 45.688 366.054 46.232 366.033 46.744C366.012 47.2347 365.98 47.672 365.937 48.056H343.281ZM352.433 33.016C349.937 33.016 347.846 33.9013 346.161 35.672C344.497 37.4427 343.548 40.184 343.313 43.896H360.881C360.817 40.2907 360.028 37.5813 358.513 35.768C356.998 33.9333 354.972 33.016 352.433 33.016ZM377.752 63V58.872H383V33.432H377.752V29.304H387.096L388.088 37.272C389.389 34.4987 390.968 32.3547 392.824 30.84C394.68 29.3253 397.133 28.568 400.184 28.568C401.123 28.568 401.955 28.6427 402.68 28.792C403.427 28.92 404.184 29.0907 404.952 29.304L403.384 34.104C402.68 33.912 402.04 33.7733 401.464 33.688C400.888 33.5813 400.227 33.528 399.48 33.528C396.899 33.528 394.68 34.4453 392.824 36.28C390.968 38.1147 389.485 40.888 388.376 44.6V58.872H395.224V63H377.752ZM399.768 40.696V33.368L400.312 29.304H404.952L404.184 40.696H399.768Z" fill="#ECE9F4"/>
</svg>
